<?xml version="1.0" encoding="UTF-8" standalone="no"?><!-- Generator: Gravit.io --><svg xmlns="http://www.w3.org/2000/svg" xmlns:xlink="http://www.w3.org/1999/xlink" style="isolation:isolate" viewBox="0 0 250 250" width="250pt" height="250pt"><defs><clipPath id="_clipPath_R7KpzXDEoxm8elNCrZvcjq1GEahksw6B"><rect width="250" height="250"/></clipPath></defs><g clip-path="url(#_clipPath_R7KpzXDEoxm8elNCrZvcjq1GEahksw6B)"><rect width="250" height="250" style="fill:rgb(114,27,101)"/><g><path d=" M 82.047 41.438 Q 104.844 26.469 110.109 25 C 120.859 22 128.547 24.688 129.109 26 C 129.672 27.313 119.859 26.75 116.359 33.75 C 125.859 30.25 137.359 25.25 145.234 27.75 C 153.109 30.25 173.333 36.667 187.359 45.25 Q 202 59 209.109 92.5 Q 201.557 77.284 193.109 71.25 C 198.359 84.75 211.357 105.599 213.333 118.333 C 216.333 137.667 212.667 154.667 197.859 166.25 C 186.004 175.524 168.109 188.25 163.359 193 C 158.609 197.75 152.859 202.5 150.609 208 C 148.359 213.5 147.359 191.25 151.359 185.25 C 155.359 179.25 181.859 162.75 188.609 153.5 C 195.359 144.25 195.109 134.75 194.859 130.75 Q 192.109 145.75 184.109 151.75 C 176.109 157.75 156.609 173.25 145.859 180 C 135.109 186.75 114.359 205.25 102.859 228.75 Q 88.609 204 93.109 182 Q 94.609 172.25 101.359 164 C 108.109 155.75 124.609 147.25 132.609 138.5 Q 128.109 153 124.859 156.5 Q 145.359 140.75 147.359 115.5 Q 144.609 91.25 129.359 73.5 Q 139.109 101 134.359 108.75 C 129.609 116.5 132.109 117.25 123.859 118.5 Q 117.109 114.75 108.359 107.75 Q 98.609 101.25 95.609 100.75 Q 108.359 114.25 111.609 125.5 Q 113.359 144.5 105.609 148 Q 88.859 145.75 79.859 151.75 C 70.859 157.75 66.609 165.5 66.609 167.5 C 66.609 169.5 54.109 156.25 54.359 146.25 Q 53.859 153.75 54.609 159.25 Q 47.359 154 45.859 147.5 Q 44.359 141 57.359 123.25 Q 68.859 132 74.359 134.25 Q 78.859 136 83.609 141.25 Q 83.359 133.25 77.609 130.25 Q 60.359 125.5 58.109 119 C 55.859 112.5 54.109 110 57.359 107 Q 61.984 102.563 68.922 102.75 Q 64.234 99.938 65.172 98.813 C 66.109 97.688 66.109 96.938 76.609 97.125 Q 68.359 90.75 55.047 95.813 Q 52.234 93.563 48.297 93.75 Q 45.484 91.125 59.922 83.25 Q 74.359 75.375 73.797 74.813 Q 68.922 75.563 64.984 77.813 Q 66.109 70.313 75.859 65.813 Q 76.984 56.438 73.984 50.063 Q 78.672 53.438 80.922 58.313 L 82.047 41.438 Z " fill="rgb(255,255,255)"/><clipPath id="_clipPath_5gj6KksLp78lc1XhLXPMi5ZeDytISlSi"><path d=" M 82.047 41.438 Q 104.844 26.469 110.109 25 C 120.859 22 128.547 24.688 129.109 26 C 129.672 27.313 119.859 26.75 116.359 33.75 C 125.859 30.25 137.359 25.25 145.234 27.75 C 153.109 30.25 173.333 36.667 187.359 45.25 Q 202 59 209.109 92.5 Q 201.557 77.284 193.109 71.25 C 198.359 84.75 211.357 105.599 213.333 118.333 C 216.333 137.667 212.667 154.667 197.859 166.25 C 186.004 175.524 168.109 188.25 163.359 193 C 158.609 197.75 152.859 202.5 150.609 208 C 148.359 213.5 147.359 191.25 151.359 185.25 C 155.359 179.25 181.859 162.75 188.609 153.5 C 195.359 144.25 195.109 134.75 194.859 130.75 Q 192.109 145.75 184.109 151.75 C 176.109 157.75 156.609 173.25 145.859 180 C 135.109 186.75 114.359 205.25 102.859 228.75 Q 88.609 204 93.109 182 Q 94.609 172.25 101.359 164 C 108.109 155.75 124.609 147.25 132.609 138.5 Q 128.109 153 124.859 156.5 Q 145.359 140.75 147.359 115.5 Q 144.609 91.25 129.359 73.5 Q 139.109 101 134.359 108.75 C 129.609 116.5 132.109 117.25 123.859 118.5 Q 117.109 114.75 108.359 107.75 Q 98.609 101.25 95.609 100.75 Q 108.359 114.25 111.609 125.5 Q 113.359 144.5 105.609 148 Q 88.859 145.75 79.859 151.75 C 70.859 157.75 66.609 165.5 66.609 167.5 C 66.609 169.5 54.109 156.25 54.359 146.25 Q 53.859 153.75 54.609 159.25 Q 47.359 154 45.859 147.5 Q 44.359 141 57.359 123.25 Q 68.859 132 74.359 134.25 Q 78.859 136 83.609 141.25 Q 83.359 133.25 77.609 130.25 Q 60.359 125.5 58.109 119 C 55.859 112.5 54.109 110 57.359 107 Q 61.984 102.563 68.922 102.75 Q 64.234 99.938 65.172 98.813 C 66.109 97.688 66.109 96.938 76.609 97.125 Q 68.359 90.75 55.047 95.813 Q 52.234 93.563 48.297 93.75 Q 45.484 91.125 59.922 83.25 Q 74.359 75.375 73.797 74.813 Q 68.922 75.563 64.984 77.813 Q 66.109 70.313 75.859 65.813 Q 76.984 56.438 73.984 50.063 Q 78.672 53.438 80.922 58.313 L 82.047 41.438 Z " fill="rgb(255,255,255)"/></clipPath><g clip-path="url(#_clipPath_5gj6KksLp78lc1XhLXPMi5ZeDytISlSi)"><path d=" M 99.75 57.125 Q 112.375 55.25 117.625 55.625 Q 131.875 46.875 133.375 46.5 Q 120.875 51.125 118.25 51.875 C 115.625 52.625 111 53.625 106.625 53.625 Q 102.25 53.625 99.75 57.125 Z " fill="rgb(114,27,101)"/></g><path d=" M 90.203 72.07 C 95.547 72.727 101 72.25 104.5 72.25 Q 111.5 74.5 116 81.5 Q 87.75 83.75 81 87.75 L 85.75 82.688 Q 88.938 82.063 87.313 76.875 L 86.313 74.688 Q 89.063 75.75 89.625 77 Q 89.547 72.984 88.813 71.875 C 88.803 71.86 89.713 72.01 90.203 72.07 Z " fill="rgb(114,27,101)"/><path d=" M 43.938 97.688 L 46.469 97.969 L 46.656 102.094 L 46.844 102.094 Q 49.094 105.938 53.219 108 Q 54.813 111.281 54.25 115.219 Q 53.875 116.438 56.031 119.25 Q 57.156 120.844 56.406 121.313 C 55.656 121.781 52.844 124.406 52.281 125.906 C 51.719 127.406 47.781 118.125 46 116.719 Q 41.781 107.438 43.938 97.688 Z " fill="rgb(255,255,255)"/><path d=" M 84.906 159.797 Q 91.416 167.109 92.266 170.344 Q 88.869 178.641 88.586 182.578 C 88.303 186.516 86.887 200.297 90.992 209.156 Q 88.586 209.438 84.765 204.234 C 80.943 199.031 73.018 188.625 74.433 184.125 Q 74.15 183.422 74.857 179.344 C 75.565 175.266 79.669 172.031 82.217 166.547 L 84.906 159.797 Z " fill="rgb(255,255,255)"/><path d=" M 86 60 L 93.5 58.75 Q 100.75 44.5 106.5 40.25 Q 96.5 47 86 60 Z " fill="rgb(114,27,101)"/><path d=" M 127.125 55.75 Q 152.375 62 174.625 58.75 Q 179.25 58.875 179.625 70.5 Q 179.375 87 172.875 92 Q 171.75 93.25 173.375 95 C 175 96.75 181.5 114 177.625 124.625 Q 175.625 104.375 171 101.125 Q 172.625 115.25 169.375 130 C 166.125 144.75 147.375 164.875 139.875 168.125 Q 152.75 145.375 153 120.375 Q 158.25 136.75 155.875 145.875 Q 168.75 130.375 165.25 105.75 L 165.375 105.875 Q 161.625 88.125 141.625 67.25 L 127.125 55.75 Z " fill="rgb(114,27,101)"/><path d=" M 144.375 62.25 Q 171.5 63 173.375 62 Q 159.625 67.125 153.875 71.75 Q 145.875 64.625 144.375 62.25 Z " fill="rgb(255,255,255)"/><path d=" M 157.25 75.375 Q 161.75 74.375 168.875 75.875 Q 165.5 77.5 162.75 77.375 Q 166.625 82.25 165.875 88.5 Q 159.5 76 157.25 75.375 Z " fill="rgb(255,255,255)"/></g></g></svg>